<svg viewBox="0 0 116 72" fill="none" xmlns="http://www.w3.org/2000/svg">
  <path fill="currentColor" d="M106.3 9.7V8.3a4.4 4.4 0 0 0-.5-1.6c-.5-1-1.2-1.8-2-2.4a22 22 0 0 0-8.5-3.1C92.4 1 89.7.8 87 .8h-8l-7.9.2-7.9.2-7.9.1-7.9.3-7.9.2-7.9.2a138.3 138.3 0 0 1-7.9.2l-7.9.3L8 3c-1.7.2-3.4.8-4.8 1.8a6.4 6.4 0 0 0-2.4 5.5c0 1.1.5 2.2 1.3 3 .6.7 1.4 1.3 2.2 1.7 1.2.5 2.5.8 3.8 1l.2.5.5 1.8a64.1 64.1 0 0 1 1.5 7.5l.3 2 .2 1.8a32 32 0 0 0 2 8.4c.6 1.4 1.3 2.7 2.2 4 1 1.4 2.1 2.6 3.5 3.5 1.4 1 3 1.7 4.8 2l.6.2h.6l1 .2 2.1.1 8 .4 8 .2 7.9-.2c5.3-.3 10.5-.5 15.8-.6l8-.3a42.4 42.4 0 0 0 8.3-1.3c2.9-.7 5.6-1.9 8-3.5a20.4 20.4 0 0 0 8.4-10.2l.4-1 .4-1.2.4-2.2c.4-2.7.5-5.4.5-8.2V17l.1-.3h.1l.4-.2.7-.5a6.2 6.2 0 0 0 2.2-1.8c.4-.5.7-1 .9-1.6.3-1 .4-1.9.3-2.8Zm-5 1.2-.2.2-.2.2a8 8 0 0 1-.6.4l-.9.7a5.3 5.3 0 0 0-2.3 4.3v1.1a55.4 55.4 0 0 1-1.5 11.8l-.4.8a15 15 0 0 1-6.6 7.5 22.7 22.7 0 0 1-8.2 3c-1.8.2-3.7.4-5.5.4h-7.8l-15.8-.1H24.6l-.3-.1c-.9-.1-1.7-.4-2.5-.8a11.3 11.3 0 0 1-4-4.7c-1-2.2-1.8-4.5-2.2-6.8l-.4-2-.4-2a137.8 137.8 0 0 0-3-9.8 10.3 10.3 0 0 0-1-1.8 3.1 3.1 0 0 0-.8-.7 2.5 2.5 0 0 0-.7-.3h-.5l-1.2-.4c-.5-.1-1-.4-1.4-.6l-.8-.8a1 1 0 0 1-.2-.5l.2-.9.6-.7c.7-.5 1.5-.7 2.4-.8h1.8l2-.2 4-.3 7.8-.5 3.9-.1 4-.2 7.9-.3a388.7 388.7 0 0 1 15.7-.4h7.9l7.9-.1h7.9l7.8.1a75.4 75.4 0 0 1 9.3.9 17.3 17.3 0 0 1 4.5 2l.4.4v2.1Z"/>
  <path fill="currentColor" d="m89.4 13-17.3-.2h-8.6l-8.6.1-8.7.3-8.6.6c-5.7.5-11.5.8-17.2 1.5a.8.8 0 0 0 .1 1.7c5.7 0 11.5-.4 17.2-.4h8.6l8.6-.2a557.3 557.3 0 0 1 34.4.3 1.8 1.8 0 1 0 .1-3.7ZM36.4 51.6a7.4 7.4 0 0 0-6.7 4.2 7 7 0 0 0 1.5 7.9 7.4 7.4 0 0 0 8 1.5 7.2 7.2 0 0 0 4.4-6.7 7 7 0 0 0-2.2-5 7.4 7.4 0 0 0-5-2Zm2.3 9c-.7.6-1.5.9-2.3.9a3.2 3.2 0 0 1-3.3-3 3 3 0 0 1 .9-2.3 3.4 3.4 0 0 1 4.8 0 3.1 3.1 0 0 1 1 2.3 3 3 0 0 1-1.1 2.2ZM75.6 51.6a7.4 7.4 0 0 0-6.7 4.2 7 7 0 0 0 1.5 7.9 7.4 7.4 0 0 0 8 1.5 7.2 7.2 0 0 0 4.4-6.7 7 7 0 0 0-2.3-5 7.4 7.4 0 0 0-5-2Zm2.2 9c-.6.6-1.4.9-2.2.9a3.2 3.2 0 0 1-3.3-3 3 3 0 0 1 .9-2.3 3.4 3.4 0 0 1 4.8 0 3.1 3.1 0 0 1 .9 2.3 3 3 0 0 1-1 2.2Z"/>
  <circle fill="#E94B57" cx="109" cy="59.6" r="7"/>
</svg>