<svg viewBox="0 0 478 87" fill="none">
    <path fill="#E94B57" d="M465.8 66.5a7 7 0 1 0 0-13.8 7 7 0 0 0 0 13.8Z"></path>
    <path fill="currentColor"
        d="M303.7 14.2a7 7 0 1 0 0-13.8 7 7 0 0 0 0 13.8ZM167.5 31.3a62.5 62.5 0 0 0-14.2-4.3c-2-.3-4.1-1-6-2.3a5.8 5.8 0 0 1-2.6-5A5.7 5.7 0 0 1 147 15a8.7 8.7 0 0 1 5.3-1.7c1.9 0 3.7.4 5.3 1.4l1.5 1.3.9.8c1.6 1 2.9 1.6 3.9 1.6 1.7 0 3.4-1.3 5.2-4 1.6-2.4 1.9-3.7 1.9-4.4 0-.4-.3-1.6-2.3-3.5l-2.1-1.7c-1-1-3-1.8-5.7-2.7-3-1-6-1.4-9.2-1.3-6.3 0-11.2 1.8-14.8 5.6a18.1 18.1 0 0 0-5.4 13c-.1 3.3.6 6.5 2 9.4 1.2 2.3 3 4.3 5.2 5.6 4.4 2.5 9 4.2 14 5.2 2 .4 4 1.1 5.9 2.2 1.8 1.2 2.7 2.7 2.7 4.5 0 3.6-1.6 8-9.2 8-1.7-.1-3.3-.6-4.7-1.6-1.4-.8-2.7-1.9-3.8-3.2-3.5-3.6-5.2-4.1-6-4.1a5.4 5.4 0 0 0-3.8 1.8c-3 3-3.4 4.7-3.4 5.3 0 1.3.6 2.8 2 4.5l.8 1.1c1.1 1.7 3.2 3.5 6.1 5.3a27.4 27.4 0 0 0 13.1 3.5c5.3 0 10.3-1.7 14.6-4.7 2.3-1.6 4.3-3.9 5.5-6.5 1.5-3 2.2-6.4 2.2-9.8 0-3.3-.6-6.5-2.1-9.4a12 12 0 0 0-5-5.2ZM222.4 24a2.6 2.6 0 0 0-1.7-1.3c-1.5-.4-3.1-.6-4.7-.5-4.9 0-5.7 2.2-5.8 4l-.3 2.8-1.7-2.4a11 11 0 0 0-1.4-1.6 12.6 12.6 0 0 0-8-2.7c-5 0-9.5 2.2-13.6 6.5a21.7 21.7 0 0 0 0 30.5c4 4.3 8.5 6.5 13.2 6.5 4.7 0 8-1.4 9.9-4.2l1.6-2.3.3 2.8a3.6 3.6 0 0 0 1.5 2.7c.6.5 2 1 5.7 1 2.7 0 4.4-.6 5-1.7a7 7 0 0 0 .6-2l.2-2.8V28.8c0-1 0-2-.2-2.9 0-.7-.3-1.3-.6-2ZM207 50a8 8 0 0 1-6.1 2.7 8.5 8.5 0 0 1-6.3-2.6 8.3 8.3 0 0 1-2.6-6 9 9 0 0 1 2.4-6 8.1 8.1 0 0 1 6.4-2.8 7.9 7.9 0 0 1 6.4 2.8 8.6 8.6 0 0 1-.1 11.9ZM287.4 22.5c-1-.5-2-.8-3-.8-2.4 0-4 1.6-5.3 4.8l-6.3 17-1-2.4c-.6-1.2-2.3-5.8-5.2-14l-.7-1.4c-.5-1-1.3-1.8-2.2-2.4a6.2 6.2 0 0 0-3.9-1.2c-1.4 0-2.9.8-4.3 2.2-.8.7-1.4 1.6-1.7 2.6l-6.2 17-1-2.8a461 461 0 0 0-6.2-16.3v-.1l-.6-1.3a3.9 3.9 0 0 0-3.4-1.7c-1.5 0-2.8.4-4.1 1-3 1.2-4.3 2.7-4.3 4.5.1 1 .4 2 .8 3l13.1 32a7 7 0 0 0 2.2 2.8c1 .8 2.4 1.3 3.8 1.2a5.5 5.5 0 0 0 4-1.7c.5-.5.9-1 1.2-1.6l.7-1.3c0-.3.3-.8.6-1.6l2.2-5.9 2.6-6.9 1-2.5 1 2.5 5.1 13.6.7 1.5c.5 1 1.3 2 2.2 2.7a5 5 0 0 0 3.2 1.2c1 0 2-.1 2.9-.5A7.9 7.9 0 0 0 279 61l9.7-23.5 2.3-5.7c1.1-2.5 1.3-3.8 1.3-4.3 0-2-1.6-3.6-4.9-5ZM309 23.5c-1-.8-2.8-1.2-5.3-1.2-3.2 0-5.2.6-5.8 1.7a7 7 0 0 0-.7 2v36.3l.7 2c.6 1 2.6 1.7 5.7 1.7 3.2 0 5.2-.6 5.8-1.7a6 6 0 0 0 .7-2l.1-2.8v-33c-.1-1.4-.5-2.4-1.3-3ZM359.4 2.5a2.6 2.6 0 0 0-1.7-1.3c-2.7-.6-5.5-.6-8.1 0a2.6 2.6 0 0 0-1.7 1.3 6 6 0 0 0-.7 1.9l-.1 2.8v21.4l-2-2.4c-2.1-2.6-5.1-4-9.1-4-4.9 0-9.4 2.3-13.5 6.6a21.9 21.9 0 0 0 0 30.5c4 4.3 8.6 6.5 13.5 6.5 4 0 7.1-1.2 9.4-3.8l1.5-1.8.4 2.3c.2 1.5 1 3.4 5.6 3.4 3.5 0 5.8-.6 6.5-1.8l.7-1.8V4.5l-.7-2Zm-15 47.6a8 8 0 0 1-6.2 2.7 9 9 0 0 1-8.8-8.7 9 9 0 0 1 5.2-8c1.2-.6 2.4-.8 3.6-.7a8 8 0 0 1 6.3 2.8 8.7 8.7 0 0 1-.1 11.9ZM409.2 24a2.6 2.6 0 0 0-1.7-1.3c-1.5-.4-3.1-.6-4.7-.5-4.8 0-5.6 2.2-5.8 4l-.3 2.8-1.7-2.4a11 11 0 0 0-1.4-1.6 12.6 12.6 0 0 0-8-2.7c-5 0-9.5 2.2-13.5 6.5a21.7 21.7 0 0 0 0 30.5c4 4.3 8.4 6.5 13.1 6.5 4.7 0 8-1.4 9.9-4.2l1.6-2.3.4 2.8a3.6 3.6 0 0 0 1.4 2.7c.6.5 2 1 5.7 1 1.9 0 4.3-.3 5-1.7a7 7 0 0 0 .7-2V26l-.7-2ZM394 50a8 8 0 0 1-6.2 2.7 8.5 8.5 0 0 1-6.3-2.6 8.3 8.3 0 0 1-2.6-6 9 9 0 0 1 2.4-6 8.1 8.1 0 0 1 6.4-2.8 7.9 7.9 0 0 1 6.4 2.8A8.7 8.7 0 0 1 394 50ZM456.4 22.6c-1.3-.6-2.8-1-4.4-1.1a2.7 2.7 0 0 0-2.3 1 8 8 0 0 0-.9 1.4 1053 1053 0 0 0-9.2 20.6l-.7 2.2-1.3-2a714.8 714.8 0 0 1-13-21.8c-.3-.5-.7-.9-1.2-1.1-.7-.4-1.4-.6-2.1-.6-.6 0-1.8.3-4 1.6-2.8 1.6-4.3 3.3-4.3 4.7 0 .4.2 1.4 1.6 3.7l17.7 29.7-.3.5c-7.4 16-8.2 19-8.2 19.5 0 1.7 1.5 3.1 4.5 4.5 2.3 1 3.5 1.2 4.1 1.2.7 0 1.4-.2 2-.6.5-.3 1-.8 1.2-1.3l1.2-2.4 22.8-51 .7-1.7c.4-.8.6-1.6.6-2.5 0-1.6-1.5-3.2-4.5-4.5ZM106.3 9.7V8.3a4.4 4.4 0 0 0-.5-1.6c-.5-1-1.2-1.8-2-2.4a22 22 0 0 0-8.5-3.1C92.4 1 89.7.8 87 .8h-8l-7.9.2-7.9.2-7.9.1-7.9.3-7.9.2-7.9.2a138.3 138.3 0 0 1-7.9.2l-7.9.3L8 3c-1.7.2-3.4.8-4.8 1.8a6.4 6.4 0 0 0-2.4 5.5c0 1.1.5 2.2 1.3 3 .6.7 1.4 1.3 2.2 1.7 1.2.5 2.5.8 3.8 1l.2.5.5 1.8a64.1 64.1 0 0 1 1.5 7.5l.3 2 .2 1.8a32 32 0 0 0 2 8.4c.6 1.4 1.3 2.7 2.2 4 1 1.4 2.1 2.6 3.5 3.5 1.4 1 3 1.7 4.8 2l.6.2h.6l1 .2 2.1.1 8 .4 8 .2 7.9-.2c5.3-.3 10.5-.5 15.8-.6l8-.3a42.4 42.4 0 0 0 8.3-1.3c2.9-.7 5.6-1.9 8-3.5a20.4 20.4 0 0 0 8.4-10.2l.4-1 .4-1.2.4-2.2c.4-2.7.5-5.4.5-8.2V17l.1-.3h.1l.4-.2.7-.5a6.2 6.2 0 0 0 2.2-1.8c.4-.5.7-1 .9-1.6.3-1 .4-1.9.3-2.8Zm-5 1.2-.2.2-.2.2a8 8 0 0 1-.6.4l-.9.7a5.3 5.3 0 0 0-2.3 4.3v1.1a55.4 55.4 0 0 1-1.5 11.8l-.4.8a15 15 0 0 1-6.6 7.5 22.7 22.7 0 0 1-8.2 3c-1.8.2-3.7.4-5.5.4h-7.8l-15.8-.1H24.6l-.3-.1c-.9-.1-1.7-.4-2.5-.8a11.3 11.3 0 0 1-4-4.7c-1-2.2-1.8-4.5-2.2-6.8l-.4-2-.4-2a137.8 137.8 0 0 0-3-9.8 10.3 10.3 0 0 0-1-1.8 3.1 3.1 0 0 0-.8-.7 2.5 2.5 0 0 0-.7-.3h-.5l-1.2-.4c-.5-.1-1-.4-1.4-.6l-.8-.8a1 1 0 0 1-.2-.5l.2-.9.6-.7c.7-.5 1.5-.7 2.4-.8h1.8l2-.2 4-.3 7.8-.5 3.9-.1 4-.2 7.9-.3a388.7 388.7 0 0 1 15.7-.4h7.9l7.9-.1h7.9l7.8.1a75.4 75.4 0 0 1 9.3.9 17.3 17.3 0 0 1 4.5 2l.4.4v2.1Z"></path>
    <path fill="currentColor"
        d="m89.4 13-17.3-.2h-8.6l-8.6.1-8.7.3-8.6.6c-5.7.5-11.5.8-17.2 1.5a.8.8 0 0 0 .1 1.7c5.7 0 11.5-.4 17.2-.4h8.6l8.6-.2a557.3 557.3 0 0 1 34.4.3 1.8 1.8 0 1 0 .1-3.7ZM36.4 51.6a7.4 7.4 0 0 0-6.7 4.2 7 7 0 0 0 1.5 7.9 7.4 7.4 0 0 0 8 1.5 7.2 7.2 0 0 0 4.4-6.7 7 7 0 0 0-2.2-5 7.4 7.4 0 0 0-5-2Zm2.3 9c-.7.6-1.5.9-2.3.9a3.2 3.2 0 0 1-3.3-3 3 3 0 0 1 .9-2.3 3.4 3.4 0 0 1 4.8 0 3.1 3.1 0 0 1 1 2.3 3 3 0 0 1-1.1 2.2ZM75.6 51.6a7.4 7.4 0 0 0-6.7 4.2 7 7 0 0 0 1.5 7.9 7.4 7.4 0 0 0 8 1.5 7.2 7.2 0 0 0 4.4-6.7 7 7 0 0 0-2.3-5 7.4 7.4 0 0 0-5-2Zm2.2 9c-.6.6-1.4.9-2.2.9a3.2 3.2 0 0 1-3.3-3 3 3 0 0 1 .9-2.3 3.4 3.4 0 0 1 4.8 0 3.1 3.1 0 0 1 .9 2.3 3 3 0 0 1-1 2.2Z"></path>
</svg>