<svg viewBox="0 0 140 40" fill="none">
    <path fill="#e94b57" d="M137.27,39.78A2.69,2.69,0,1,1,140,37.09,2.69,2.69,0,0,1,137.27,39.78Z"></path>
    <path  fill="currentColor"
        d="M60.73,17a4.62,4.62,0,0,1-1.43-.26A6.34,6.34,0,0,0,58,16.47c-.28,0-.39.1-.62.54H57l.52-4.12h.42c.42,2.46,1.2,3.53,2.65,3.53a1.86,1.86,0,0,0,1.92-2,5.43,5.43,0,0,0-1.45-3A6.26,6.26,0,0,1,59.4,8.09c0-1.74,1.22-2.85,3.15-2.85A4.23,4.23,0,0,1,64,5.5a3.86,3.86,0,0,0,.94.18.75.75,0,0,0,.78-.47h.36l-.52,3.61h-.42c-.26-2-1-3-2.39-3a1.3,1.3,0,0,0-1.45,1.4A4.75,4.75,0,0,0,62.7,10c1.22,1.5,1.77,2.62,1.77,3.63A3.43,3.43,0,0,1,60.73,17Zm14.71,0c-.73,0-1-.32-1-1.07a10.88,10.88,0,0,1,.59-3C72.71,16.11,71.59,17,69.77,17c-1.66,0-2.65-1.06-2.65-2.88,0-4.12,4-8.84,7.43-8.84a1.91,1.91,0,0,1,2.08,1.5l.29-1.24L77,5.42l1.59-.18.18.08c-.05.23-.08.28-.15.54-1.23,4.44-2.32,8.9-2.32,9.42a.35.35,0,0,0,.37.33c.23,0,.54-.23,1.35-1.06l.73-.73.31.26C77.1,16.44,76.47,16.94,75.44,16.94ZM74.71,5.81c-1.09-.08-2.32.8-3.41,2.39a12.43,12.43,0,0,0-2,5.57c0,1.19.57,1.92,1.51,1.92a3.24,3.24,0,0,0,2.26-1.14,12,12,0,0,0,3.09-7.16A1.48,1.48,0,0,0,74.71,5.81Zm13.64,11.1c-.86,0-1.22-.42-1.22-1.4a10.56,10.56,0,0,1,.42-1.95l1.14-4.28a10.88,10.88,0,0,0,.36-2c0-.46-.23-.75-.62-.75-1,0-2.29,1.27-3.85,3.68C83.44,12,83.21,12.58,82,16.68H80L82.53,7.6a2,2,0,0,0,0-.44c0-.52-.34-.68-1.66-.7V6l4.21-.8.08,0-1.74,5.65c2.67-4.12,4.31-5.7,6-5.7a1.58,1.58,0,0,1,1.72,1.58,5.83,5.83,0,0,1-.24,1.48l-1.48,5.34a8.53,8.53,0,0,0-.36,1.64.41.41,0,0,0,.41.41c.37,0,.84-.41,1.59-1.37.18-.21.36-.44.55-.68L92,14C90.17,16.39,89.52,16.91,88.35,16.91Zm6.78.05c-.78,0-1.19-.52-1.19-1.48a12.26,12.26,0,0,1,.57-2.82l1.25-4.59A4.9,4.9,0,0,0,96,6.92c0-.51-.23-.59-1.64-.62V5.89a34.21,34.21,0,0,0,4.16-.65l.08,0L96.3,13.64a8.57,8.57,0,0,0-.41,1.71.42.42,0,0,0,.41.39c.44,0,1-.54,2.13-2l.34.29C97.29,16.18,96.36,17,95.13,17ZM98.56,2.75a1.24,1.24,0,0,1-1.24-1.38A1.26,1.26,0,0,1,98.54,0a1.4,1.4,0,0,1,1.3,1.43A1.32,1.32,0,0,1,98.56,2.75ZM102.1,17c-.7,0-1.25-.41-1.25-1a10.21,10.21,0,0,1,.44-1.92l2-7.67H101.4a.51.51,0,0,1,0-.16c0-.29.18-.44.83-.65a9,9,0,0,0,3.46-2.85c.13-.16.21-.23.31-.23h.08l.18.38-.73,2.68h2.08l-.13.83h-2.18L103,15a.42.42,0,0,0,.37.65c.41,0,.83-.41,2.1-2l.34.18C104.15,16.24,103.29,17,102.1,17Zm13.77,0c-.73,0-1-.32-1-1.07a10.68,10.68,0,0,1,.6-3C113.14,16.11,112,17,110.21,17c-1.67,0-2.65-1.06-2.65-2.88,0-4.12,4-8.84,7.43-8.84a1.91,1.91,0,0,1,2.08,1.5l.28-1.24.08-.08L119,5.24l.18.08a5.21,5.21,0,0,1-.16.54c-1.22,4.44-2.31,8.9-2.31,9.42a.35.35,0,0,0,.36.33c.24,0,.55-.23,1.35-1.06l.73-.73.31.26C117.54,16.44,116.91,16.94,115.87,16.94Zm-.73-11.13c-1.09-.08-2.31.8-3.4,2.39a12.43,12.43,0,0,0-2,5.57c0,1.19.57,1.92,1.51,1.92a3.26,3.26,0,0,0,2.26-1.14,12.09,12.09,0,0,0,3.09-7.16A1.48,1.48,0,0,0,115.14,5.81ZM122.58,17c-.78,0-1.2-.52-1.2-1.48a12.86,12.86,0,0,1,.57-2.82l1.25-4.59a4.42,4.42,0,0,0,.23-1.15c0-.51-.23-.59-1.63-.62V5.89A34.81,34.81,0,0,0,126,5.24l.07,0-2.28,8.35a8,8,0,0,0-.42,1.71.42.42,0,0,0,.42.39c.44,0,1-.54,2.13-2l.33.29C124.73,16.18,123.8,17,122.58,17ZM126,2.75a1.24,1.24,0,0,1-1.25-1.38A1.26,1.26,0,0,1,126,0a1.4,1.4,0,0,1,1.3,1.43A1.32,1.32,0,0,1,126,2.75Zm10.83,5.11a.84.84,0,0,1-.93-.57c-.13-.26-.24-.37-.42-.37-.47,0-1.22.86-2.13,2.44-1.14,1.92-1.56,3-2.88,7.32h-2l2.11-7.58A8.52,8.52,0,0,0,131,7c0-.73-1-.6-1.79-.6V5.94l4-.7.08,0L132,10.92l.36-.94a13.65,13.65,0,0,1,2.52-3.65,3,3,0,0,1,2-1.09A1.21,1.21,0,0,1,138,6.56C138,7.39,137.62,7.86,136.84,7.86ZM68.12,24.39,65.73,35.81a14.45,14.45,0,0,1-.45,1.68,4.63,4.63,0,0,1-.62,1.26,2.52,2.52,0,0,1-2.2,1.08A2.23,2.23,0,0,1,60.61,39a6.81,6.81,0,0,1-1-2.73L56.87,22.9a3.82,3.82,0,0,1-.08-.75,3,3,0,0,1,.15-1,2.24,2.24,0,0,1,.41-.75,1.92,1.92,0,0,1,.58-.49,1.45,1.45,0,0,1,.67-.17,1.42,1.42,0,0,1,.59.14,1.63,1.63,0,0,1,.54.43,2.74,2.74,0,0,1,.45.74,4.4,4.4,0,0,1,.31,1.09l2.27,13.13,2.43-11.52c.1-.51.23-1,.37-1.49A5.54,5.54,0,0,1,66.1,21a2.73,2.73,0,0,1,.81-.9,2,2,0,0,1,1.19-.34,2,2,0,0,1,1.07.27,2.63,2.63,0,0,1,.82.78,4.93,4.93,0,0,1,.61,1.26,14.9,14.9,0,0,1,.48,1.7q.63,2.88,1.25,5.75t1.25,5.75L75.83,22a4.13,4.13,0,0,1,.3-1,2.68,2.68,0,0,1,.48-.71,2.09,2.09,0,0,1,.58-.42,1.58,1.58,0,0,1,.63-.13,1.42,1.42,0,0,1,.61.13,1.64,1.64,0,0,1,.53.42,2.2,2.2,0,0,1,.36.7,2.69,2.69,0,0,1,.15.94,4.52,4.52,0,0,1-.11.93L76.79,35.74a15.57,15.57,0,0,1-.43,1.64,5.22,5.22,0,0,1-.6,1.3,2.78,2.78,0,0,1-.86.85,2.31,2.31,0,0,1-1.21.3,2.54,2.54,0,0,1-1.21-.27,2.69,2.69,0,0,1-.88-.84,5.45,5.45,0,0,1-.67-1.41c-.19-.58-.36-1.25-.53-2ZM85.28,21a1.85,1.85,0,0,1-.17.8,1.79,1.79,0,0,1-.44.59,1.63,1.63,0,0,1-.63.35,2.22,2.22,0,0,1-.72.12,2.27,2.27,0,0,1-.75-.12,2,2,0,0,1-.63-.37,1.83,1.83,0,0,1-.43-.59,1.94,1.94,0,0,1-.15-.78,1.78,1.78,0,0,1,.15-.74,1.89,1.89,0,0,1,.41-.59,1.87,1.87,0,0,1,.62-.39,2.22,2.22,0,0,1,.79-.13,2.18,2.18,0,0,1,.72.12A1.79,1.79,0,0,1,85.28,21Zm-.17,16.09a3.86,3.86,0,0,1-.44,2,1.54,1.54,0,0,1-1.43.7,1.4,1.4,0,0,1-1.34-.7,4.23,4.23,0,0,1-.39-2V28.66a4.23,4.23,0,0,1,.39-2,1.41,1.41,0,0,1,1.34-.71,1.55,1.55,0,0,1,1.43.71,3.86,3.86,0,0,1,.44,2Zm2.63-8.45a4.23,4.23,0,0,1,.39-2,1.39,1.39,0,0,1,1.33-.71,1.56,1.56,0,0,1,1.44.71,3.87,3.87,0,0,1,.43,2,4.13,4.13,0,0,1,.59-1.21,3.8,3.8,0,0,1,.9-.93A4.43,4.43,0,0,1,94,25.91a4.16,4.16,0,0,1,1.33-.21,3.33,3.33,0,0,1,1.4.32,3.4,3.4,0,0,1,1.2,1,5.19,5.19,0,0,1,.83,1.61,7.42,7.42,0,0,1,.32,2.28v6.24a3.86,3.86,0,0,1-.44,2,1.54,1.54,0,0,1-1.43.7,1.4,1.4,0,0,1-1.34-.7,4.24,4.24,0,0,1-.38-2V31.06a3.91,3.91,0,0,0-.15-1.15,2.49,2.49,0,0,0-.38-.82,1.79,1.79,0,0,0-.58-.49,1.61,1.61,0,0,0-.72-.16,2.25,2.25,0,0,0-.89.18,2,2,0,0,0-.74.56,2.92,2.92,0,0,0-.49.93,4.12,4.12,0,0,0-.18,1.28v5.72a3.87,3.87,0,0,1-.43,2,1.56,1.56,0,0,1-1.44.7,1.39,1.39,0,0,1-1.33-.7,4.23,4.23,0,0,1-.39-2Zm17.61,2.73,1.57-2,1.56-2.05a6.14,6.14,0,0,1,1-1.08,1.56,1.56,0,0,1,1-.44,1.33,1.33,0,0,1,.6.15,1.78,1.78,0,0,1,.52.39,1.93,1.93,0,0,1,.37.57,1.52,1.52,0,0,1,.15.66,1.3,1.3,0,0,1-.23.75,7.47,7.47,0,0,1-.48.63c-.45.52-.89,1-1.34,1.52s-.89,1-1.34,1.54l3,4.4c.18.28.36.56.51.83a1.64,1.64,0,0,1,.1,1.48,1.89,1.89,0,0,1-.34.55,1.75,1.75,0,0,1-.49.38,1.33,1.33,0,0,1-.57.14,1.26,1.26,0,0,1-.55-.16,3.09,3.09,0,0,1-.62-.4,5,5,0,0,1-.6-.61,4.57,4.57,0,0,1-.53-.77c-.54-.89-1.08-1.78-1.61-2.67l-1.62-2.66v4.61a3.87,3.87,0,0,1-.43,2,1.56,1.56,0,0,1-1.44.7,1.39,1.39,0,0,1-1.33-.7,4.23,4.23,0,0,1-.39-2V22.49a4.21,4.21,0,0,1,.39-2,1.39,1.39,0,0,1,1.33-.71,1.56,1.56,0,0,1,1.44.71,3.85,3.85,0,0,1,.43,2Zm19.7,1a1.08,1.08,0,0,1-.3.84,1.17,1.17,0,0,1-.84.28h-7a4.24,4.24,0,0,0,.78,2.59,2.65,2.65,0,0,0,2.21.92,5.22,5.22,0,0,0,.91-.08,5.93,5.93,0,0,0,.83-.21c.27-.08.54-.18.81-.29l.84-.35a.72.72,0,0,1,.26-.07.69.69,0,0,1,.6.35,1.51,1.51,0,0,1,.22.83,1.77,1.77,0,0,1-.08.52,2.47,2.47,0,0,1-.74,1.1,4.12,4.12,0,0,1-1.19.69,6.11,6.11,0,0,1-1.43.35,10.58,10.58,0,0,1-1.44.1,6.25,6.25,0,0,1-2.42-.46,5.23,5.23,0,0,1-1.94-1.35,6.33,6.33,0,0,1-1.29-2.25,9.65,9.65,0,0,1-.47-3.14,8.5,8.5,0,0,1,.45-2.79,6.84,6.84,0,0,1,1.26-2.25A5.84,5.84,0,0,1,117,26.25a5.37,5.37,0,0,1,2.44-.55,5.26,5.26,0,0,1,2.49.55,5.1,5.1,0,0,1,1.73,1.46,6.45,6.45,0,0,1,1,2.14A9.92,9.92,0,0,1,125.05,32.43Zm-3-.84a5.78,5.78,0,0,0-.21-1.36,3.58,3.58,0,0,0-.5-1.08,2.3,2.3,0,0,0-.78-.71,2.25,2.25,0,0,0-1.09-.25,1.94,1.94,0,0,0-1,.27,2.6,2.6,0,0,0-.79.73,3.87,3.87,0,0,0-.52,1.08,5.52,5.52,0,0,0-.21,1.32Zm8.78,5.52a3.87,3.87,0,0,1-.43,2,1.56,1.56,0,0,1-1.44.7,1.39,1.39,0,0,1-1.33-.7,4.23,4.23,0,0,1-.39-2V22.51a4.23,4.23,0,0,1,.39-2,1.39,1.39,0,0,1,1.33-.7,1.56,1.56,0,0,1,1.44.7,3.87,3.87,0,0,1,.43,2ZM4.3,12.76H4.18l-.15,0-.29,0-.57-.11A7.12,7.12,0,0,1,2,12.19a3.78,3.78,0,0,1-1.16-.8,2.94,2.94,0,0,1-.48-.66,2.88,2.88,0,0,1-.28-.81,3,3,0,0,1,0-.42c0-.13,0-.27,0-.4a3.5,3.5,0,0,1,.15-.73A3.32,3.32,0,0,1,1,7a3.84,3.84,0,0,1,1.19-.85,5.1,5.1,0,0,1,1.25-.38A4.25,4.25,0,0,1,4,5.73l.31,0h.75l.47,0,2-.11,4-.2,2-.06h1l1,0,4-.13C22.35,5.06,25,5,27.72,4.86l2-.06c.68,0,1.35,0,2,0l4-.1,4-.06c1.35,0,2.72,0,4.08,0,.69,0,1.37,0,2.07.1A17.54,17.54,0,0,1,48.11,5a9.14,9.14,0,0,1,1.1.3c.36.12.71.25,1.07.41a8.6,8.6,0,0,1,1.06.58,4.44,4.44,0,0,1,1.07,1,2.7,2.7,0,0,1,.44.83,2,2,0,0,1,.11.56v.31a9.38,9.38,0,0,1,0,1.12,3.21,3.21,0,0,1-.14.81,3.25,3.25,0,0,1-.41.81,3.19,3.19,0,0,1-.55.6,4,4,0,0,1-.56.4l-.64.37s-.06,0-.07,0a.31.31,0,0,0-.06.13,2,2,0,0,0,0,.34v1.55a33.15,33.15,0,0,1-.27,4.17,9.22,9.22,0,0,1-.21,1.1,7.84,7.84,0,0,1-.35,1.12,13.7,13.7,0,0,1-.91,2,9.76,9.76,0,0,1-1.39,1.87,12.24,12.24,0,0,1-1.73,1.5,14.58,14.58,0,0,1-4,2,16.35,16.35,0,0,1-2.14.54c-.71.13-1.42.23-2.14.3l-1.09.07-1,0-2,.06c-2.67.1-5.36.22-8,.36s-5.39.08-8.1,0c-1.36-.06-2.72-.12-4.12-.28l-.53,0-.15,0-.16,0a1.91,1.91,0,0,1-.33-.06,6.46,6.46,0,0,1-1.29-.41,6.75,6.75,0,0,1-2.15-1.5,9.28,9.28,0,0,1-1.42-2,14,14,0,0,1-.89-2.09,18.84,18.84,0,0,1-.54-2.12c-.07-.36-.13-.72-.18-1.07,0-.18-.05-.36-.07-.54l0-.28,0-.22,0-.46-.07-.49-.15-1q-.15-1-.33-2c-.12-.64-.26-1.28-.41-1.9-.08-.3-.16-.61-.25-.87a3.6,3.6,0,0,0-.14-.35s0-.08,0-.07h0l0,0,0,0,.06,0,.11.05Zm.28-2a.86.86,0,0,1,.23.06l.16.07.12.07.1.07.14.13.09.11a3.5,3.5,0,0,1,.25.35,5.68,5.68,0,0,1,.27.57c.16.36.27.69.39,1,.22.67.4,1.33.58,2s.34,1.32.49,2l.23,1,.1.5.1.54.09.5.09.45c.07.3.14.61.22.9a14.23,14.23,0,0,0,.59,1.74,7.55,7.55,0,0,0,1.84,2.76,3.38,3.38,0,0,0,1.18.71,2.73,2.73,0,0,0,.64.16h.35l.48,0c1.27.05,2.59.07,3.91.05s2.66,0,4-.05,2.66,0,4,0c2.67.06,5.35.06,8,0h3q.47,0,.93,0A16.81,16.81,0,0,0,39,26.38,12.94,12.94,0,0,0,40.81,26,11.52,11.52,0,0,0,44,24.53a7.85,7.85,0,0,0,2.4-2.4,10.5,10.5,0,0,0,.79-1.61l.1-.24,0-.06,0,0,0-.08c0-.1.08-.24.12-.37s.14-.56.19-.86a33.7,33.7,0,0,0,.4-3.84c0-.33,0-.66,0-1v-.49a5.92,5.92,0,0,1,0-.66,2.7,2.7,0,0,1,.22-.83,2.77,2.77,0,0,1,.51-.78,6.25,6.25,0,0,1,1-.79,1.6,1.6,0,0,0,.37-.34c0-.08.06-.07.08-.26s0-.5,0-.89V8.81a.35.35,0,0,0,0,.06s0,0,0,0a1.4,1.4,0,0,0-.43-.38,4.11,4.11,0,0,0-.69-.38q-.39-.18-.81-.33c-.28-.09-.59-.19-.83-.24a14,14,0,0,0-1.82-.26c-.64-.07-1.3-.1-2-.14C42.47,7,41.16,7,39.82,7l-4,0h-4l-4,.06c-2.67,0-5.35.11-8,.24l-4,.18-1,0h-.5l-.48,0c-.66,0-1.32.06-2,.1l-4,.27-2,.15H5.47l-.28,0h-1l-.39,0a2,2,0,0,0-1.1.51,1,1,0,0,0-.23.4,1.08,1.08,0,0,0,0,.44.56.56,0,0,0,.11.31,1.75,1.75,0,0,0,.44.39,3.44,3.44,0,0,0,.72.35l.4.12.21.05.1,0Zm5.28,2.08a.69.69,0,0,0,.67.72h0c.69,0,1.39,0,2.09,0l2.1-.05c1.39,0,2.79-.06,4.19,0s2.8.06,4.2.05l2.09,0c.7,0,1.4,0,2.09,0l4.19-.08c1.4,0,2.79,0,4.19,0q4.18.06,8.37.25h.05a1.5,1.5,0,0,0,0-3c-2.82,0-5.64-.1-8.45-.09H31.47c-1.41,0-2.82,0-4.22,0-.71,0-1.41,0-2.12.06s-1.4.06-2.11.11c-1.4.08-2.81.24-4.21.39l-4.2.43-2.1.24c-.7.08-1.4.18-2.1.33A.69.69,0,0,0,9.86,12.86ZM19.92,35.2a4.29,4.29,0,0,1-1.14,3,4.11,4.11,0,0,1-3,1.3,4.15,4.15,0,0,1-4.15-4.27A4.23,4.23,0,0,1,12,33.63a4,4,0,0,1,.92-1.3,4.17,4.17,0,0,1,2.87-1.16,4.32,4.32,0,0,1,1.54.31,4,4,0,0,1,1.32.86A4.06,4.06,0,0,1,19.92,35.2Zm-2.67,0a1.45,1.45,0,0,0-.38-1.06,1.41,1.41,0,0,0-2.11,0,1.38,1.38,0,0,0,.12,2,1.43,1.43,0,0,0,.93.36,1.52,1.52,0,0,0,1-.33A1.31,1.31,0,0,0,17.25,35.2Zm27.5,0a4.16,4.16,0,0,1-2.47,3.92,4,4,0,0,1-1.63.35A4.15,4.15,0,0,1,36.5,35.2a4,4,0,0,1,.36-1.57,4,4,0,0,1,.92-1.3,4.17,4.17,0,0,1,2.87-1.16,4.32,4.32,0,0,1,1.54.31,4,4,0,0,1,1.32.86A4,4,0,0,1,44.75,35.2Zm-2.66,0a1.45,1.45,0,0,0-.38-1.06,1.41,1.41,0,0,0-2.11,0,1.38,1.38,0,0,0,.12,2,1.43,1.43,0,0,0,.93.36,1.52,1.52,0,0,0,1-.33A1.31,1.31,0,0,0,42.09,35.2Z"></path>
</svg>
